<svg xmlns="http://www.w3.org/2000/svg" xmlns:xlink="http://www.w3.org/1999/xlink" width="698" zoomAndPan="magnify" viewBox="0 0 523.5 437.249996" height="583" preserveAspectRatio="xMidYMid meet" version="1.0"><defs><g/></defs><g fill="#bab288" fill-opacity="1"><g transform="translate(200.16064, 290.843922)"><g><path d="M 59.109375 0 L 6.515625 0 L 36.515625 -174.9375 C 33.753906 -178.5625 31.539062 -182.617188 29.875 -187.109375 C 28.207031 -191.597656 27.375 -196.738281 27.375 -202.53125 C 27.375 -205.289062 27.664062 -208.007812 28.25 -210.6875 C 28.832031 -213.363281 29.554688 -215.570312 30.421875 -217.3125 L 71.0625 -217.3125 L 71.0625 -215.796875 C 67.4375 -210.722656 65.625 -205.070312 65.625 -198.84375 C 65.625 -192.90625 66.925781 -187.035156 69.53125 -181.234375 C 72.144531 -175.441406 75.625 -169.570312 79.96875 -163.625 C 84.3125 -157.6875 88.984375 -151.710938 93.984375 -145.703125 C 98.984375 -139.691406 103.875 -133.5 108.65625 -127.125 C 113.4375 -133.5 118.363281 -139.691406 123.4375 -145.703125 C 128.507812 -151.710938 133.179688 -157.6875 137.453125 -163.625 C 141.722656 -169.570312 145.160156 -175.441406 147.765625 -181.234375 C 150.378906 -187.035156 151.6875 -192.90625 151.6875 -198.84375 C 151.6875 -205.070312 149.875 -210.722656 146.25 -215.796875 L 146.25 -217.3125 L 186.890625 -217.3125 C 187.753906 -215.570312 188.476562 -213.363281 189.0625 -210.6875 C 189.644531 -208.007812 189.9375 -205.289062 189.9375 -202.53125 C 189.9375 -197.320312 189.28125 -192.648438 187.96875 -188.515625 C 186.664062 -184.390625 184.859375 -180.660156 182.546875 -177.328125 L 212.75 0 L 160.15625 0 L 160.15625 -0.65625 C 166.96875 -7.457031 172.109375 -15.785156 175.578125 -25.640625 C 179.054688 -35.492188 181.335938 -46.285156 182.421875 -58.015625 C 183.515625 -69.753906 183.769531 -81.960938 183.1875 -94.640625 C 182.613281 -107.316406 181.53125 -119.957031 179.9375 -132.5625 C 178.34375 -145.164062 176.675781 -157.265625 174.9375 -168.859375 C 170.445312 -164.648438 165.335938 -160.804688 159.609375 -157.328125 C 153.890625 -153.859375 148.128906 -150.382812 142.328125 -146.90625 C 136.535156 -143.425781 131.175781 -139.546875 126.25 -135.265625 C 121.332031 -130.992188 117.28125 -125.890625 114.09375 -119.953125 C 119.300781 -112.566406 123.679688 -104.890625 127.234375 -96.921875 C 130.785156 -88.953125 132.488281 -80.625 132.34375 -71.9375 C 132.34375 -64.394531 130.75 -57.179688 127.5625 -50.296875 C 124.375 -43.421875 120.171875 -37.410156 114.953125 -32.265625 C 109.742188 -27.128906 104.097656 -23.398438 98.015625 -21.078125 L 77.578125 -46.5 C 85.835938 -50.414062 92.9375 -55.957031 98.875 -63.125 C 104.8125 -70.300781 107.78125 -78.957031 107.78125 -89.09375 C 107.78125 -98.507812 106.367188 -106.585938 103.546875 -113.328125 C 100.722656 -120.066406 97.03125 -125.863281 92.46875 -130.71875 C 87.90625 -135.570312 82.832031 -139.914062 77.25 -143.75 C 71.675781 -147.59375 66.0625 -151.25 60.40625 -154.71875 C 54.757812 -158.195312 49.546875 -161.96875 44.765625 -166.03125 C 43.023438 -154.289062 41.394531 -142.082031 39.875 -129.40625 C 38.351562 -116.726562 37.375 -104.125 36.9375 -91.59375 C 36.507812 -79.0625 36.835938 -67.070312 37.921875 -55.625 C 39.003906 -44.1875 41.25 -33.757812 44.65625 -24.34375 C 48.0625 -14.925781 52.878906 -7.03125 59.109375 -0.65625 Z M 59.109375 0 "/></g></g></g><g fill="#bab288" fill-opacity="1"><g transform="translate(88.213529, 290.843922)"><g><path d="M 4.34375 -202.53125 C 4.34375 -205.289062 4.628906 -208.007812 5.203125 -210.6875 C 5.785156 -213.363281 6.515625 -215.570312 7.390625 -217.3125 L 48.03125 -217.3125 L 48.03125 -215.796875 C 44.40625 -210.722656 42.59375 -205.070312 42.59375 -198.84375 C 42.59375 -188.988281 44.617188 -180.148438 48.671875 -172.328125 C 52.734375 -164.503906 58.128906 -157.003906 64.859375 -149.828125 C 71.597656 -142.660156 79.023438 -135.203125 87.140625 -127.453125 C 95.253906 -119.703125 103.367188 -110.898438 111.484375 -101.046875 C 118.003906 -93.222656 123.65625 -85.867188 128.4375 -78.984375 C 133.21875 -72.109375 137.203125 -65.117188 140.390625 -58.015625 C 139.367188 -95.828125 134.875 -127.519531 126.90625 -153.09375 C 118.9375 -178.664062 107.421875 -199.851562 92.359375 -216.65625 L 92.359375 -217.3125 L 149.515625 -217.3125 L 149.515625 -19.78125 C 149.515625 -19.050781 149.550781 -18.285156 149.625 -17.484375 C 149.695312 -16.691406 149.734375 -15.9375 149.734375 -15.21875 L 149.734375 0 L 138 0 C 138 -3.039062 137.925781 -6.046875 137.78125 -9.015625 C 137.632812 -11.984375 137.5625 -14.773438 137.5625 -17.390625 C 137.5625 -29.265625 135.640625 -40.304688 131.796875 -50.515625 C 127.960938 -60.734375 122.785156 -70.1875 116.265625 -78.875 C 109.742188 -87.570312 102.425781 -95.796875 94.3125 -103.546875 C 86.195312 -111.296875 77.828125 -118.613281 69.203125 -125.5 C 60.585938 -132.382812 52.332031 -139.082031 44.4375 -145.59375 C 36.539062 -152.113281 29.476562 -158.5625 23.25 -164.9375 C 23.976562 -125.675781 28.328125 -92.789062 36.296875 -66.28125 C 44.265625 -39.769531 56 -17.894531 71.5 -0.65625 L 71.5 0 L 14.34375 0 L 14.34375 -175.59375 C 11.15625 -179.9375 8.691406 -184.351562 6.953125 -188.84375 C 5.210938 -193.332031 4.34375 -197.894531 4.34375 -202.53125 Z M 4.34375 -202.53125 "/></g></g></g><g fill="#bab288" fill-opacity="1"><g transform="translate(250.989005, 290.843922)"><g/></g></g></svg>