<svg xmlns="http://www.w3.org/2000/svg" xmlns:xlink="http://www.w3.org/1999/xlink" width="698" zoomAndPan="magnify" viewBox="0 0 523.5 463.499982" height="618" preserveAspectRatio="xMidYMid meet" version="1.0"><defs><g/><clipPath id="531033a3f9"><path d="M 35.644531 0 L 464.242188 0 L 464.242188 428.597656 L 35.644531 428.597656 Z M 35.644531 0 " clip-rule="nonzero"/></clipPath><clipPath id="d70470c8e1"><path d="M 249.945312 0 C 131.589844 0 35.644531 95.945312 35.644531 214.300781 C 35.644531 332.652344 131.589844 428.597656 249.945312 428.597656 C 368.296875 428.597656 464.242188 332.652344 464.242188 214.300781 C 464.242188 95.945312 368.296875 0 249.945312 0 Z M 249.945312 0 " clip-rule="nonzero"/></clipPath><clipPath id="b521f7bba1"><path d="M 0.644531 0 L 429.242188 0 L 429.242188 428.597656 L 0.644531 428.597656 Z M 0.644531 0 " clip-rule="nonzero"/></clipPath><clipPath id="ccf4927acf"><path d="M 214.945312 0 C 96.589844 0 0.644531 95.945312 0.644531 214.300781 C 0.644531 332.652344 96.589844 428.597656 214.945312 428.597656 C 333.296875 428.597656 429.242188 332.652344 429.242188 214.300781 C 429.242188 95.945312 333.296875 0 214.945312 0 Z M 214.945312 0 " clip-rule="nonzero"/></clipPath><clipPath id="cb61a1a359"><rect x="0" width="430" y="0" height="429"/></clipPath><clipPath id="d5c4359c2d"><path d="M 7 0.09375 L 214 0.09375 L 214 218 L 7 218 Z M 7 0.09375 " clip-rule="nonzero"/></clipPath><clipPath id="dbb56dda1a"><rect x="0" width="299" y="0" height="293"/></clipPath><clipPath id="2799547ac4"><path d="M 4 0.09375 L 150 0.09375 L 150 218 L 4 218 Z M 4 0.09375 " clip-rule="nonzero"/></clipPath><clipPath id="a71ee714a2"><rect x="0" width="166" y="0" height="293"/></clipPath></defs><g clip-path="url(#531033a3f9)"><g clip-path="url(#d70470c8e1)"><g transform="matrix(1, 0, 0, 1, 35, 0)"><g clip-path="url(#cb61a1a359)"><g clip-path="url(#b521f7bba1)"><g clip-path="url(#ccf4927acf)"><path fill="#fffbf3" d="M 0.644531 0 L 429.242188 0 L 429.242188 428.597656 L 0.644531 428.597656 Z M 0.644531 0 " fill-opacity="1" fill-rule="nonzero"/></g></g></g></g></g></g><g transform="matrix(1, 0, 0, 1, 199, 97)"><g clip-path="url(#dbb56dda1a)"><g clip-path="url(#d5c4359c2d)"><g fill="#bab288" fill-opacity="1"><g transform="translate(1.121539, 217.757956)"><g><path d="M 59.140625 0 L 6.515625 0 L 36.53125 -175.03125 C 33.769531 -178.65625 31.554688 -182.710938 29.890625 -187.203125 C 28.222656 -191.703125 27.390625 -196.851562 27.390625 -202.65625 C 27.390625 -205.40625 27.679688 -208.117188 28.265625 -210.796875 C 28.847656 -213.484375 29.570312 -215.695312 30.4375 -217.4375 L 71.109375 -217.4375 L 71.109375 -215.921875 C 67.484375 -210.847656 65.671875 -205.191406 65.671875 -198.953125 C 65.671875 -193.015625 66.972656 -187.144531 69.578125 -181.34375 C 72.191406 -175.539062 75.671875 -169.664062 80.015625 -163.71875 C 84.367188 -157.78125 89.046875 -151.800781 94.046875 -145.78125 C 99.046875 -139.769531 103.9375 -133.578125 108.71875 -127.203125 C 113.5 -133.578125 118.425781 -139.769531 123.5 -145.78125 C 128.570312 -151.800781 133.242188 -157.78125 137.515625 -163.71875 C 141.796875 -169.664062 145.238281 -175.539062 147.84375 -181.34375 C 150.457031 -187.144531 151.765625 -193.015625 151.765625 -198.953125 C 151.765625 -205.191406 149.953125 -210.847656 146.328125 -215.921875 L 146.328125 -217.4375 L 187 -217.4375 C 187.863281 -215.695312 188.585938 -213.484375 189.171875 -210.796875 C 189.753906 -208.117188 190.046875 -205.40625 190.046875 -202.65625 C 190.046875 -197.4375 189.390625 -192.757812 188.078125 -188.625 C 186.773438 -184.5 184.960938 -180.765625 182.640625 -177.421875 L 212.875 0 L 160.25 0 L 160.25 -0.65625 C 167.0625 -7.46875 172.207031 -15.800781 175.6875 -25.65625 C 179.164062 -35.507812 181.445312 -46.304688 182.53125 -58.046875 C 183.625 -69.796875 183.878906 -82.007812 183.296875 -94.6875 C 182.722656 -107.375 181.632812 -120.019531 180.03125 -132.625 C 178.4375 -145.238281 176.769531 -157.347656 175.03125 -168.953125 C 170.539062 -164.742188 165.429688 -160.898438 159.703125 -157.421875 C 153.984375 -153.941406 148.222656 -150.460938 142.421875 -146.984375 C 136.617188 -143.503906 131.253906 -139.625 126.328125 -135.34375 C 121.398438 -131.070312 117.34375 -125.96875 114.15625 -120.03125 C 119.375 -112.632812 123.757812 -104.945312 127.3125 -96.96875 C 130.863281 -89 132.566406 -80.664062 132.421875 -71.96875 C 132.421875 -64.4375 130.828125 -57.226562 127.640625 -50.34375 C 124.453125 -43.457031 120.25 -37.441406 115.03125 -32.296875 C 109.8125 -27.148438 104.15625 -23.414062 98.0625 -21.09375 L 77.625 -46.53125 C 85.882812 -50.445312 92.984375 -55.988281 98.921875 -63.15625 C 104.867188 -70.332031 107.84375 -79 107.84375 -89.15625 C 107.84375 -98.570312 106.429688 -106.648438 103.609375 -113.390625 C 100.785156 -120.128906 97.085938 -125.925781 92.515625 -130.78125 C 87.953125 -135.644531 82.878906 -139.992188 77.296875 -143.828125 C 71.710938 -147.671875 66.09375 -151.332031 60.4375 -154.8125 C 54.789062 -158.289062 49.578125 -162.0625 44.796875 -166.125 C 43.054688 -154.382812 41.421875 -142.171875 39.890625 -129.484375 C 38.367188 -116.796875 37.390625 -104.179688 36.953125 -91.640625 C 36.523438 -79.109375 36.851562 -67.113281 37.9375 -55.65625 C 39.03125 -44.207031 41.28125 -33.769531 44.6875 -24.34375 C 48.09375 -14.925781 52.910156 -7.03125 59.140625 -0.65625 Z M 59.140625 0 "/></g></g></g></g><g fill="#bab288" fill-opacity="1"><g transform="translate(220.52017, 217.757956)"><g/></g></g></g></g><g transform="matrix(1, 0, 0, 1, 88, 97)"><g clip-path="url(#a71ee714a2)"><g clip-path="url(#2799547ac4)"><g fill="#bab288" fill-opacity="1"><g transform="translate(0.103267, 217.757956)"><g><path d="M 4.34375 -202.65625 C 4.34375 -205.40625 4.632812 -208.117188 5.21875 -210.796875 C 5.800781 -213.484375 6.523438 -215.695312 7.390625 -217.4375 L 48.046875 -217.4375 L 48.046875 -215.921875 C 44.429688 -210.847656 42.625 -205.191406 42.625 -198.953125 C 42.625 -189.097656 44.648438 -180.253906 48.703125 -172.421875 C 52.765625 -164.597656 58.164062 -157.097656 64.90625 -149.921875 C 71.644531 -142.742188 79.070312 -135.273438 87.1875 -127.515625 C 95.3125 -119.765625 103.429688 -110.960938 111.546875 -101.109375 C 118.066406 -93.273438 123.71875 -85.914062 128.5 -79.03125 C 133.289062 -72.144531 137.28125 -65.15625 140.46875 -58.0625 C 139.445312 -95.894531 134.953125 -127.601562 126.984375 -153.1875 C 119.015625 -178.769531 107.488281 -199.96875 92.40625 -216.78125 L 92.40625 -217.4375 L 149.59375 -217.4375 L 149.59375 -19.78125 C 149.59375 -19.0625 149.628906 -18.300781 149.703125 -17.5 C 149.773438 -16.707031 149.8125 -15.945312 149.8125 -15.21875 L 149.8125 0 L 138.078125 0 C 138.078125 -3.039062 138.003906 -6.046875 137.859375 -9.015625 C 137.710938 -11.992188 137.640625 -14.785156 137.640625 -17.390625 C 137.640625 -29.273438 135.71875 -40.328125 131.875 -50.546875 C 128.03125 -60.773438 122.847656 -70.234375 116.328125 -78.921875 C 109.804688 -87.617188 102.484375 -95.84375 94.359375 -103.59375 C 86.242188 -111.351562 77.875 -118.675781 69.25 -125.5625 C 60.625 -132.457031 52.359375 -139.164062 44.453125 -145.6875 C 36.554688 -152.207031 29.492188 -158.65625 23.265625 -165.03125 C 23.992188 -125.75 28.34375 -92.84375 36.3125 -66.3125 C 44.28125 -39.789062 56.019531 -17.90625 71.53125 -0.65625 L 71.53125 0 L 14.34375 0 L 14.34375 -175.6875 C 11.15625 -180.039062 8.691406 -184.460938 6.953125 -188.953125 C 5.210938 -193.441406 4.34375 -198.007812 4.34375 -202.65625 Z M 4.34375 -202.65625 "/></g></g></g></g></g></g></svg>